<svg width="105" height="22" viewBox="0 0 105 22" fill="none" xmlns="http://www.w3.org/2000/svg">
<path d="M9.42475 8.86261C8.51701 7.90555 8.32702 6.65698 8.03245 5.5498C7.73788 4.44262 7.30291 3.81226 7.3795 3.41545C7.45609 3.01864 8.07637 2.9245 8.50864 3.53092C8.94091 4.13734 9.39244 5.12977 9.56047 5.32921C9.7285 5.52865 10.2145 2.95051 10.2847 1.8508C10.3549 0.75109 10.2881 0.588729 10.5165 0.247539C10.745 -0.0936506 11.3733 -0.115881 11.3956 0.512499C11.4178 1.14079 11.4373 3.46792 11.4589 3.65953C11.4805 3.85123 11.6482 3.83233 11.6881 3.75502C11.7279 3.67771 12.5648 0.76891 12.7771 0.28399C12.9894 -0.20093 13.642 -0.00752027 13.5947 0.43447C13.5475 0.87655 12.9023 3.76375 12.8759 3.96085C12.8496 4.15795 13.0439 4.16029 13.1104 4.10431C13.1769 4.04833 14.082 2.17516 14.4461 1.74586C14.8103 1.31665 15.3218 1.5502 15.1787 2.00299C15.0356 2.45587 13.9048 4.69417 13.8573 4.91791C13.8096 5.14165 14.0465 5.09071 14.1103 5.0107C14.1741 4.93069 15.1521 3.70444 15.394 3.48304C15.6359 3.26164 16.2377 3.21817 15.9457 3.85762C15.6538 4.49707 14.7608 5.61676 14.4315 6.13912C14.1021 6.66148 13.3246 8.37472 12.7452 9.04657C12.1659 9.71842 10.4435 9.93676 9.42475 8.86261Z" fill="#FC5185"/>
<path d="M13.5212 7.42618C12.9117 7.90984 12.1352 8.23384 11.3627 8.13997C10.2299 8.00236 9.38209 7.02316 8.86486 6.00598C8.39218 5.07628 8.08996 4.05334 7.52971 3.17926C7.45294 3.23443 7.39885 3.31516 7.3795 3.41524C7.30291 3.81205 7.73788 4.44241 8.03245 5.54959C8.32702 6.65677 8.51701 7.90534 9.42475 8.8624C10.4435 9.93655 12.1659 9.71821 12.7453 9.04636C13.1172 8.61517 13.5705 7.75522 13.9347 7.05619C13.8035 7.18651 13.6665 7.31089 13.5212 7.42618Z" fill="#E82D67"/>
<path d="M7.31132 11.3236C6.3431 11.7389 5.35508 11.5359 4.44401 11.4504C3.53294 11.3648 2.94029 11.5163 2.66417 11.3492C2.38805 11.182 2.48903 10.6912 3.06296 10.5352C3.63689 10.379 4.50539 10.3153 4.70132 10.2445C4.89725 10.1738 3.09995 9.0965 2.29535 8.73965C1.49075 8.3828 1.35062 8.38802 1.1582 8.12243C0.965777 7.85684 1.12292 7.37993 1.59983 7.53707C2.07674 7.69421 3.8258 8.32331 3.97538 8.36012C4.12496 8.39693 4.15718 8.26607 4.11029 8.21486C4.0634 8.16365 2.11544 6.73193 1.81079 6.43871C1.50614 6.14549 1.83158 5.71007 2.14973 5.86775C2.46788 6.02543 4.45274 7.30757 4.59305 7.38182C4.73345 7.45607 4.78898 7.31108 4.7654 7.24574C4.74182 7.1804 3.58865 5.98412 3.36779 5.59253C3.14693 5.20094 3.46337 4.88225 3.76316 5.11472C4.06286 5.34719 5.42717 6.81365 5.58161 6.91121C5.73605 7.00877 5.76341 6.81716 5.7212 6.74723C5.6789 6.6773 5.03063 5.60531 4.93172 5.36285C4.83281 5.12039 4.96664 4.65743 5.36498 5.05307C5.76332 5.44871 6.35525 6.42746 6.65558 6.81869C6.95591 7.21001 8.02448 8.26643 8.36756 8.88644C8.71082 9.50645 8.39789 10.8574 7.31132 11.3236Z" fill="#FF7948"/>
<path d="M7.36829 7.85654C7.56206 8.44703 7.59005 9.11843 7.3061 9.6713C6.88958 10.482 5.92145 10.8464 5.01614 10.9525C4.18886 11.0496 3.33872 10.9929 2.52881 11.171C2.54888 11.2438 2.59442 11.3066 2.66408 11.3488C2.9402 11.5159 3.53285 11.3645 4.44392 11.45C5.35499 11.5356 6.34301 11.7385 7.31123 11.3232C8.39789 10.857 8.71073 9.50606 8.36765 8.88605C8.14742 8.48807 7.62848 7.91054 7.20557 7.44434C7.26677 7.5788 7.32203 7.71578 7.36829 7.85654Z" fill="#FF4400"/>
<path d="M13.8064 9.92771C13.8252 8.8451 14.4319 8.00459 14.8961 7.18667C15.3603 6.36875 15.468 5.74946 15.7411 5.561C16.0141 5.37263 16.4316 5.67413 16.3361 6.27794C16.2405 6.88175 15.9342 7.72262 15.9179 7.9361C15.9016 8.14958 17.669 6.91901 18.3425 6.3152C19.0161 5.71139 19.0703 5.57792 19.4003 5.50952C19.7303 5.44103 20.1111 5.78933 19.7628 6.17021C19.4145 6.551 18.0877 7.9253 17.9901 8.04995C17.8925 8.1746 18.0016 8.26001 18.0694 8.23769C18.1372 8.21528 20.3001 6.9929 20.7033 6.8309C21.1065 6.66899 21.3776 7.15751 21.0956 7.38926C20.8138 7.62101 18.7754 8.94104 18.6466 9.0413C18.5179 9.14156 18.6304 9.25478 18.7015 9.26018C18.7727 9.26558 20.38 8.68895 20.8401 8.64692C21.3002 8.60489 21.4655 9.0359 21.1214 9.21887C20.7771 9.40184 18.8275 10.0625 18.671 10.1662C18.5145 10.2699 18.6826 10.3763 18.7659 10.3661C18.8492 10.3559 20.1272 10.2001 20.3962 10.2096C20.6653 10.219 21.0427 10.5396 20.504 10.7463C19.9652 10.953 18.7984 11.0953 18.3051 11.2118C17.8118 11.3284 16.3712 11.8848 15.6454 11.9451C14.9197 12.0053 13.7854 11.1427 13.8064 9.92771Z" fill="white"/>
<path d="M17.0317 11.4424C16.3965 11.3752 15.7554 11.1184 15.357 10.6192C14.7726 9.88719 14.8391 8.82609 15.1212 7.93284C15.3789 7.11645 15.7902 6.34353 15.9647 5.50932C15.8881 5.49753 15.8099 5.51364 15.7411 5.56116C15.468 5.74953 15.3603 6.36891 14.8961 7.18683C14.4318 8.00475 13.8252 8.84526 13.8064 9.92787C13.7855 11.1429 14.9198 12.0055 15.6455 11.9452C16.1113 11.9065 16.8714 11.6635 17.4866 11.4636C17.3348 11.4644 17.1831 11.4584 17.0317 11.4424Z" fill="#C3C3C3"/>
<path d="M12.7661 14.8937C13.5015 15.6407 13.6711 16.6301 13.9216 17.5055C14.1721 18.381 14.5271 18.8754 14.4721 19.1919C14.4171 19.5083 13.9256 19.5924 13.5732 19.1169C13.2206 18.6414 12.8471 17.8595 12.7107 17.7035C12.5742 17.5476 12.2263 19.6034 12.1868 20.4783C12.1474 21.3533 12.2028 21.4813 12.0263 21.7558C11.8499 22.0303 11.3509 22.0573 11.3239 21.5583C11.2969 21.0594 11.2468 19.2105 11.2268 19.0585C11.2068 18.9065 11.0738 18.924 11.0433 18.986C11.0128 19.048 10.391 21.3719 10.2294 21.7604C10.0679 22.1488 9.54649 22.0049 9.57745 21.6529C9.60841 21.3009 10.0783 18.9971 10.0963 18.84C10.1143 18.6831 9.95977 18.6841 9.90784 18.7295C9.85582 18.7751 9.16444 20.277 8.88148 20.6234C8.59852 20.9699 8.18857 20.7919 8.29549 20.4299C8.4025 20.0679 9.26785 18.2725 9.30232 18.094C9.33679 17.9156 9.14932 17.9596 9.09982 18.024C9.05032 18.0885 8.29144 19.0775 8.10244 19.257C7.91344 19.4365 7.43599 19.48 7.65847 18.9676C7.88095 18.4551 8.57386 17.5521 8.82784 17.1321C9.08182 16.7122 9.6742 15.3392 10.1246 14.7967C10.5751 14.2544 11.9406 14.0553 12.7661 14.8937Z" fill="#3EC1C9"/>
<path d="M9.53257 16.0958C10.0098 15.7025 10.6219 15.4334 11.2372 15.4965C12.1394 15.5891 12.8277 16.3546 13.2537 17.1552C13.6431 17.8869 13.8985 18.6953 14.3567 19.3817C14.4169 19.3367 14.4586 19.2718 14.4725 19.1918C14.5275 18.8754 14.1725 18.3809 13.922 17.5055C13.6714 16.6301 13.5019 15.6408 12.7665 14.8937C11.941 14.0553 10.5756 14.2544 10.1251 14.7968C9.83605 15.145 9.48856 15.835 9.20947 16.3959C9.3118 16.2904 9.41881 16.1896 9.53257 16.0958Z" fill="#36A3A3"/>
<path d="M15.0121 12.6994C16.0996 12.2328 17.2093 12.4609 18.2326 12.557C19.2559 12.6531 19.9215 12.4829 20.2317 12.6707C20.5418 12.8584 20.4283 13.4097 19.7837 13.5851C19.1391 13.7605 18.1637 13.832 17.9436 13.9115C17.7236 13.991 19.7423 15.2009 20.646 15.6017C21.5496 16.0025 21.7071 15.9967 21.9231 16.295C22.1392 16.5932 21.9627 17.1289 21.4271 16.9524C20.8914 16.7759 18.9269 16.0694 18.7589 16.028C18.5909 15.9866 18.5547 16.1336 18.6074 16.1911C18.66 16.2486 20.8479 17.8568 21.1901 18.1861C21.5323 18.5154 21.1667 19.0045 20.8094 18.8274C20.4521 18.6503 18.2227 17.2102 18.0651 17.1269C17.9075 17.0435 17.8451 17.2063 17.8715 17.2797C17.898 17.353 19.1932 18.6967 19.4413 19.1365C19.6894 19.5763 19.3339 19.9342 18.9972 19.6731C18.6606 19.412 17.1283 17.765 16.9548 17.6553C16.7813 17.5458 16.7506 17.761 16.798 17.8395C16.8455 17.918 17.5736 19.122 17.6848 19.3944C17.7959 19.6668 17.6455 20.1867 17.1981 19.7423C16.7507 19.298 16.0858 18.1987 15.7486 17.7592C15.4114 17.3197 14.2111 16.1331 13.8258 15.4367C13.4402 14.7403 13.7916 13.223 15.0121 12.6994Z" fill="#FF7948"/>
<path d="M14.9484 16.593C14.7307 15.9298 14.6993 15.1756 15.0184 14.5548C15.4862 13.6443 16.5736 13.2349 17.5904 13.1157C18.5196 13.0067 19.4744 13.0702 20.3841 12.8704C20.3615 12.7885 20.3104 12.718 20.2322 12.6706C19.922 12.4829 19.2564 12.6531 18.2331 12.557C17.2098 12.4609 16.1 12.2329 15.0126 12.6994C13.7921 13.223 13.4408 14.7403 13.8261 15.4366C14.0735 15.8836 14.6563 16.5323 15.1314 17.056C15.0625 16.9051 15.0004 16.7512 14.9484 16.593Z" fill="#FF4400"/>
<path d="M8.70115 14.4443C8.67946 15.7005 7.97539 16.6758 7.43683 17.6249C6.89827 18.5739 6.77317 19.2926 6.45637 19.5112C6.13948 19.7298 5.65519 19.3799 5.76598 18.6793C5.87686 17.9787 6.23227 17.003 6.25108 16.7553C6.26998 16.5076 4.21933 17.9355 3.43777 18.6361C2.65621 19.3367 2.5933 19.4915 2.21035 19.571C1.8274 19.6504 1.3855 19.2463 1.78969 18.8044C2.19388 18.3625 3.73342 16.7679 3.84664 16.6232C3.95986 16.4785 3.83332 16.3795 3.75466 16.4054C3.676 16.4314 1.16617 17.8499 0.698352 18.0378C0.230532 18.2257 -0.0840188 17.6588 0.243041 17.3899C0.570101 17.1209 2.9353 15.5892 3.0847 15.4729C3.2341 15.3565 3.1036 15.2252 3.02098 15.2189C2.93845 15.2126 1.07338 15.8817 0.539502 15.9305C0.00562169 15.9793 -0.186259 15.4792 0.213161 15.2669C0.612581 15.0545 2.87473 14.2879 3.05635 14.1676C3.23797 14.0473 3.04303 13.9239 2.94628 13.9357C2.84953 13.9475 1.3666 14.1284 1.05448 14.1173C0.742362 14.1062 0.304331 13.7343 0.929471 13.4946C1.55452 13.2547 2.90857 13.0897 3.48097 12.9544C4.05337 12.8191 5.72503 12.1736 6.56716 12.1036C7.40929 12.0335 8.72554 13.0345 8.70115 14.4443Z" fill="white"/>
<path d="M4.9586 12.687C5.69561 12.7649 6.43955 13.0629 6.90188 13.6422C7.57994 14.4916 7.50281 15.7229 7.17557 16.7593C6.8765 17.7066 6.39923 18.6034 6.19673 19.5714C6.28574 19.5851 6.37637 19.5664 6.45629 19.5112C6.77318 19.2926 6.89819 18.574 7.43675 17.6249C7.97531 16.6759 8.67938 15.7005 8.70107 14.4444C8.72546 13.0346 7.40921 12.0337 6.56708 12.1036C6.02663 12.1485 5.14463 12.4305 4.43066 12.6624C4.60679 12.6615 4.78283 12.6684 4.9586 12.687Z" fill="#C3C3C3"/>
<path d="M17.7499 2.2301C17.5661 2.18825 17.4009 2.26187 17.2955 2.41505C17.1597 2.61233 17.1389 2.89736 17.1315 3.12875C17.1269 3.27491 17.2388 3.4136 17.3774 3.45167C17.5305 3.4937 17.6667 3.41882 17.7555 3.29777C17.8988 3.10238 18.0299 2.86371 18.0453 2.61819C18.0559 2.4498 17.9134 2.26727 17.7499 2.2301Z" fill="#FC5185"/>
<path d="M18.7043 3.32038C18.535 3.28033 18.3578 3.34468 18.2214 3.44854C18.1148 3.52972 17.9904 3.62188 17.9709 3.76372C17.9571 3.8647 17.9814 3.95137 18.0706 4.0087C18.1984 4.09096 18.348 4.06153 18.4881 4.03111C18.6388 3.99835 18.8155 3.90943 18.8865 3.76795C18.9709 3.59938 18.9065 3.36817 18.7043 3.32038Z" fill="#FC5185"/>
<path d="M6.36746 2.3316C6.34415 2.25483 6.323 2.1759 6.27386 2.11128C6.18377 1.99293 6.08819 1.94343 5.93897 1.92795C5.82476 1.91607 5.70947 1.99986 5.65322 2.09184C5.53793 2.28039 5.60939 2.46381 5.72648 2.62392C5.82179 2.75424 5.91143 2.87142 6.07739 2.91003C6.17441 2.93262 6.31562 2.89752 6.35972 2.7951C6.38933 2.72652 6.40517 2.6736 6.41489 2.60133C6.42767 2.5062 6.39455 2.42097 6.36746 2.3316Z" fill="#FC5185"/>
<path d="M5.72232 3.19769C5.51451 3.05333 5.22768 2.97296 5.01474 3.1535C4.93806 3.21848 4.93104 3.34835 4.97892 3.43088C5.11743 3.66983 5.43729 3.66785 5.66931 3.60341C5.86407 3.5495 5.87442 3.30344 5.72232 3.19769Z" fill="#FC5185"/>
<path d="M1.50392 11.0537C1.46126 10.994 1.41896 10.9274 1.3547 10.889C1.29404 10.8526 1.21997 10.8284 1.15562 10.7995C0.989569 10.7249 0.85664 10.6691 0.67196 10.7094C0.44993 10.7579 0.429769 11.0212 0.550099 11.1708C0.650359 11.2954 0.79409 11.3305 0.9416 11.3695C1.09046 11.4088 1.21016 11.442 1.36334 11.3993C1.4987 11.3614 1.59401 11.1798 1.50392 11.0537Z" fill="#FC5185"/>
<path d="M1.55963 11.8402C1.27865 11.5554 0.503209 12.0312 0.830719 12.3636C0.990379 12.5257 1.2692 12.4384 1.42022 12.305C1.53488 12.2037 1.70444 11.9868 1.55963 11.8402Z" fill="#FC5185"/>
<path d="M22.114 11.3837C22.0965 11.2672 22.009 11.1388 21.8835 11.1162C21.6823 11.0798 21.4313 11.1577 21.2661 11.28C21.1077 11.3971 20.9476 11.6274 21.1151 11.8057C21.2306 11.9288 21.408 11.9021 21.555 11.8596C21.6104 11.8436 21.6631 11.815 21.7183 11.7971C21.8019 11.7699 21.8879 11.7579 21.9604 11.7045C22.0662 11.6265 22.1348 11.5216 22.114 11.3837Z" fill="#FC5185"/>
<path d="M21.7948 12.3581C21.7312 12.2887 21.6506 12.2608 21.5668 12.2253C21.4854 12.1907 21.4273 12.1712 21.3377 12.1879C21.3136 12.1924 21.2903 12.1983 21.2665 12.2048C21.163 12.233 21.1198 12.3343 21.1369 12.4331C21.1534 12.5283 21.1874 12.5991 21.2607 12.6657C21.34 12.7378 21.4115 12.8035 21.5161 12.837C21.6319 12.8741 21.7826 12.8135 21.8397 12.7054C21.9011 12.5889 21.8839 12.4555 21.7948 12.3581Z" fill="#FC5185"/>
<path d="M6.13324 20.3245C6.06718 20.3149 6.00337 20.3017 5.93686 20.3165C5.86747 20.332 5.80339 20.3752 5.74183 20.4094C5.6224 20.4758 5.53006 20.5597 5.4325 20.6539C5.4343 20.6536 5.43601 20.6534 5.43781 20.6531C5.32837 20.7643 5.30461 20.936 5.40775 21.0695C5.53312 21.2318 5.73094 21.2179 5.88016 21.1015C5.92372 21.0675 5.97043 21.0354 6.01174 20.9988C6.0643 20.9524 6.1039 20.8923 6.14647 20.8363C6.17509 20.7987 6.2065 20.762 6.23008 20.7212C6.27004 20.652 6.27346 20.5838 6.27256 20.5075C6.27175 20.4329 6.21478 20.3363 6.13324 20.3245Z" fill="#FC5185"/>
<path d="M6.92672 20.8899C6.88595 20.7357 6.73547 20.5522 6.5588 20.6551C6.45521 20.7154 6.41345 20.8307 6.39734 20.9441C6.38213 21.0513 6.36404 21.1711 6.39023 21.2757C6.43361 21.4491 6.69488 21.5403 6.81764 21.3886C6.92375 21.2574 6.97109 21.0576 6.92672 20.8899Z" fill="#FC5185"/>
<path d="M15.3173 20.3996C15.3095 20.2782 15.2788 20.194 15.1911 20.1077C15.0888 20.0073 14.9207 20.007 14.8182 20.1077C14.733 20.1914 14.6996 20.2801 14.6919 20.3996C14.6877 20.4647 14.6865 20.5302 14.6838 20.5953C14.6769 20.7632 14.8364 20.9237 15.0047 20.9161C15.1725 20.9085 15.333 20.7749 15.3255 20.5953C15.3227 20.5301 15.3216 20.4647 15.3173 20.3996Z" fill="#FC5185"/>
<path d="M16.1992 20.1951C16.1154 20.1001 16.0345 19.9791 15.9178 19.9242C15.6952 19.8194 15.4892 19.9908 15.5257 20.2257C15.5452 20.3516 15.6417 20.4675 15.7085 20.5738C15.7985 20.7171 15.9079 20.8757 16.1003 20.8592C16.2358 20.8475 16.3215 20.7781 16.37 20.6538C16.4411 20.4715 16.3109 20.322 16.1992 20.1951Z" fill="#FC5185"/>
<path d="M32.6777 17.4961V8.12109H29.7827V6.32109H37.5827V8.12109H34.7327V17.4961H32.6777ZM38.2126 17.4961V9.33609H40.1776V17.4961H38.2126ZM38.2126 8.42109V6.32109H40.1776V8.42109H38.2126ZM45.2619 17.5861C44.3419 17.5861 43.6269 17.3361 43.1169 16.8361C42.6169 16.3261 42.3669 15.6111 42.3669 14.6911V11.0911H40.9569V9.33609H41.1069C41.5069 9.33609 41.8169 9.23109 42.0369 9.02109C42.2569 8.81109 42.3669 8.50609 42.3669 8.10609V7.47609H44.3319V9.33609H46.2069V11.0911H44.3319V14.5861C44.3319 14.8561 44.3769 15.0861 44.4669 15.2761C44.5669 15.4661 44.7169 15.6111 44.9169 15.7111C45.1269 15.8111 45.3919 15.8611 45.7119 15.8611C45.7819 15.8611 45.8619 15.8561 45.9519 15.8461C46.0519 15.8361 46.1469 15.8261 46.2369 15.8161V17.4961C46.0969 17.5161 45.9369 17.5361 45.7569 17.5561C45.5769 17.5761 45.4119 17.5861 45.2619 17.5861ZM47.2881 17.4961V9.33609H49.2531V17.4961H47.2881ZM47.2881 8.42109V6.32109H49.2531V8.42109H47.2881ZM50.6174 20.4961V9.33609H52.4624V10.9561L52.2824 10.5511C52.5624 10.1111 52.9424 9.77109 53.4224 9.53109C53.9024 9.28109 54.4574 9.15609 55.0874 9.15609C55.8574 9.15609 56.5524 9.34609 57.1724 9.72609C57.7924 10.1061 58.2824 10.6161 58.6424 11.2561C59.0124 11.8961 59.1974 12.6161 59.1974 13.4161C59.1974 14.2061 59.0174 14.9261 58.6574 15.5761C58.2974 16.2261 57.8074 16.7411 57.1874 17.1211C56.5674 17.4911 55.8624 17.6761 55.0724 17.6761C54.4824 17.6761 53.9374 17.5611 53.4374 17.3311C52.9474 17.0911 52.5574 16.7511 52.2674 16.3111L52.5824 15.9211V20.4961H50.6174ZM54.8474 15.8761C55.2974 15.8761 55.6974 15.7711 56.0474 15.5611C56.3974 15.3511 56.6674 15.0611 56.8574 14.6911C57.0574 14.3211 57.1574 13.8961 57.1574 13.4161C57.1574 12.9361 57.0574 12.5161 56.8574 12.1561C56.6674 11.7861 56.3974 11.4961 56.0474 11.2861C55.6974 11.0661 55.2974 10.9561 54.8474 10.9561C54.4174 10.9561 54.0274 11.0611 53.6774 11.2711C53.3374 11.4811 53.0674 11.7761 52.8674 12.1561C52.6774 12.5261 52.5824 12.9461 52.5824 13.4161C52.5824 13.8961 52.6774 14.3211 52.8674 14.6911C53.0674 15.0611 53.3374 15.3511 53.6774 15.5611C54.0274 15.7711 54.4174 15.8761 54.8474 15.8761ZM62.7206 17.6761C62.1506 17.6761 61.6556 17.5811 61.2356 17.3911C60.8156 17.2011 60.4906 16.9311 60.2606 16.5811C60.0306 16.2211 59.9156 15.8061 59.9156 15.3361C59.9156 14.8861 60.0156 14.4861 60.2156 14.1361C60.4156 13.7761 60.7256 13.4761 61.1456 13.2361C61.5656 12.9961 62.0956 12.8261 62.7356 12.7261L65.4056 12.2911V13.7911L63.1106 14.1811C62.7206 14.2511 62.4306 14.3761 62.2406 14.5561C62.0506 14.7361 61.9556 14.9711 61.9556 15.2611C61.9556 15.5411 62.0606 15.7661 62.2706 15.9361C62.4906 16.0961 62.7606 16.1761 63.0806 16.1761C63.4906 16.1761 63.8506 16.0911 64.1606 15.9211C64.4806 15.7411 64.7256 15.4961 64.8956 15.1861C65.0756 14.8761 65.1656 14.5361 65.1656 14.1661V12.0661C65.1656 11.7161 65.0256 11.4261 64.7456 11.1961C64.4756 10.9561 64.1156 10.8361 63.6656 10.8361C63.2456 10.8361 62.8706 10.9511 62.5406 11.1811C62.2206 11.4011 61.9856 11.6961 61.8356 12.0661L60.2306 11.2861C60.3906 10.8561 60.6406 10.4861 60.9806 10.1761C61.3306 9.85609 61.7406 9.60609 62.2106 9.42609C62.6806 9.24609 63.1906 9.15609 63.7406 9.15609C64.4106 9.15609 65.0006 9.28109 65.5106 9.53109C66.0206 9.77109 66.4156 10.1111 66.6956 10.5511C66.9856 10.9811 67.1306 11.4861 67.1306 12.0661V17.4961H65.2706V16.1011L65.6906 16.0711C65.4806 16.4211 65.2306 16.7161 64.9406 16.9561C64.6506 17.1861 64.3206 17.3661 63.9506 17.4961C63.5806 17.6161 63.1706 17.6761 62.7206 17.6761ZM68.4967 17.4961V9.33609H70.3417V10.9411L70.1917 10.6561C70.3817 10.1661 70.6917 9.79609 71.1217 9.54609C71.5617 9.28609 72.0717 9.15609 72.6517 9.15609C73.2517 9.15609 73.7817 9.28609 74.2417 9.54609C74.7117 9.80609 75.0767 10.1711 75.3367 10.6411C75.5967 11.1011 75.7267 11.6361 75.7267 12.2461V17.4961H73.7617V12.7111C73.7617 12.3511 73.6917 12.0411 73.5517 11.7811C73.4117 11.5211 73.2167 11.3211 72.9667 11.1811C72.7267 11.0311 72.4417 10.9561 72.1117 10.9561C71.7917 10.9561 71.5067 11.0311 71.2567 11.1811C71.0067 11.3211 70.8117 11.5211 70.6717 11.7811C70.5317 12.0411 70.4617 12.3511 70.4617 12.7111V17.4961H68.4967Z" fill="white"/>
<path d="M77.1033 17.4961V6.32109H79.1433V11.1961H83.8983V6.32109H85.9533V17.4961H83.8983V12.9961H79.1433V17.4961H77.1033ZM89.9643 17.6761C89.3943 17.6761 88.8993 17.5811 88.4793 17.3911C88.0593 17.2011 87.7343 16.9311 87.5043 16.5811C87.2743 16.2211 87.1593 15.8061 87.1593 15.3361C87.1593 14.8861 87.2593 14.4861 87.4593 14.1361C87.6593 13.7761 87.9693 13.4761 88.3893 13.2361C88.8093 12.9961 89.3393 12.8261 89.9793 12.7261L92.6493 12.2911V13.7911L90.3543 14.1811C89.9643 14.2511 89.6743 14.3761 89.4843 14.5561C89.2943 14.7361 89.1993 14.9711 89.1993 15.2611C89.1993 15.5411 89.3043 15.7661 89.5143 15.9361C89.7343 16.0961 90.0043 16.1761 90.3243 16.1761C90.7343 16.1761 91.0943 16.0911 91.4043 15.9211C91.7243 15.7411 91.9693 15.4961 92.1393 15.1861C92.3193 14.8761 92.4093 14.5361 92.4093 14.1661V12.0661C92.4093 11.7161 92.2693 11.4261 91.9893 11.1961C91.7193 10.9561 91.3593 10.8361 90.9093 10.8361C90.4893 10.8361 90.1143 10.9511 89.7843 11.1811C89.4643 11.4011 89.2293 11.6961 89.0793 12.0661L87.4743 11.2861C87.6343 10.8561 87.8843 10.4861 88.2243 10.1761C88.5743 9.85609 88.9843 9.60609 89.4543 9.42609C89.9243 9.24609 90.4343 9.15609 90.9843 9.15609C91.6543 9.15609 92.2443 9.28109 92.7543 9.53109C93.2643 9.77109 93.6593 10.1111 93.9393 10.5511C94.2293 10.9811 94.3743 11.4861 94.3743 12.0661V17.4961H92.5143V16.1011L92.9343 16.0711C92.7243 16.4211 92.4743 16.7161 92.1843 16.9561C91.8943 17.1861 91.5643 17.3661 91.1943 17.4961C90.8243 17.6161 90.4143 17.6761 89.9643 17.6761ZM99.314 17.5861C98.394 17.5861 97.679 17.3361 97.169 16.8361C96.669 16.3261 96.419 15.6111 96.419 14.6911V11.0911H95.009V9.33609H95.159C95.559 9.33609 95.869 9.23109 96.089 9.02109C96.309 8.81109 96.419 8.50609 96.419 8.10609V7.47609H98.384V9.33609H100.259V11.0911H98.384V14.5861C98.384 14.8561 98.429 15.0861 98.519 15.2761C98.619 15.4661 98.769 15.6111 98.969 15.7111C99.179 15.8111 99.444 15.8611 99.764 15.8611C99.834 15.8611 99.914 15.8561 100.004 15.8461C100.104 15.8361 100.199 15.8261 100.289 15.8161V17.4961C100.149 17.5161 99.989 17.5361 99.809 17.5561C99.629 17.5761 99.464 17.5861 99.314 17.5861ZM101.34 17.4961V9.33609H103.305V17.4961H101.34ZM101.34 8.42109V6.32109H103.305V8.42109H101.34Z" fill="#FF4400"/>
</svg>
